<?xml version="1.0" standalone="no"?>
<!DOCTYPE svg PUBLIC "-//W3C//DTD SVG 20010904//EN"
 "http://www.w3.org/TR/2001/REC-SVG-20010904/DTD/svg10.dtd">
<svg version="1.0" xmlns="http://www.w3.org/2000/svg"
 width="980.000000pt" height="616.000000pt" viewBox="0 0 980.000000 616.000000"
 preserveAspectRatio="xMidYMid meet">

<g transform="translate(0.000000,616.000000) scale(0.100000,-0.100000)"
fill="#000000" stroke="none">
<path d="M1615 6136 c-141 -28 -291 -97 -374 -172 -79 -71 -138 -208 -222
-517 l-24 -88 -73 -55 c-186 -140 -295 -254 -409 -426 -103 -156 -182 -343
-217 -513 -21 -99 -71 -624 -141 -1480 -28 -339 -127 -1574 -146 -1805 -28
-359 19 -541 190 -722 104 -111 224 -198 380 -276 l133 -67 222 0 c213 1 224
2 302 28 152 50 388 210 530 358 174 182 286 349 615 912 94 160 174 295 178
299 4 4 48 -21 99 -56 230 -159 440 -226 708 -226 188 0 340 37 519 125 225
112 431 324 551 568 l38 77 425 -2 424 -3 63 -117 c80 -150 127 -213 230 -314
311 -307 747 -409 1184 -277 109 32 180 67 313 155 106 70 108 71 127 52 10
-10 107 -170 216 -354 353 -600 445 -730 652 -913 141 -125 368 -261 501 -301
78 -23 404 -23 482 0 200 59 464 253 574 419 82 125 135 292 135 428 0 35 -29
405 -65 823 -83 976 -159 1888 -185 2224 -26 334 -43 449 -86 578 -39 118
-124 294 -189 391 -55 84 -211 248 -350 371 -59 52 -115 111 -125 130 -10 19
-41 112 -70 205 -89 294 -139 366 -317 458 -132 68 -212 88 -383 94 -378 14
-732 -102 -855 -281 -45 -65 -66 -134 -110 -347 -18 -92 -40 -181 -49 -197 -8
-16 -37 -48 -64 -71 l-50 -41 -2004 0 -2003 0 -54 47 c-65 57 -74 77 -106 243
-47 239 -100 368 -184 442 -88 77 -254 145 -451 184 -116 22 -392 28 -485 10z
m359 -872 c254 -49 439 -147 626 -334 112 -112 173 -196 238 -325 165 -330
163 -723 -5 -1060 -138 -277 -372 -484 -670 -594 -130 -48 -222 -63 -378 -63
-300 -1 -523 71 -744 237 -240 181 -402 443 -462 745 -20 99 -17 348 5 450 51
240 175 459 358 636 151 145 296 226 516 289 161 46 337 53 516 19z m6266 0
c242 -38 449 -145 630 -325 200 -199 298 -380 351 -650 20 -98 17 -337 -5
-439 -81 -377 -318 -681 -673 -859 -145 -73 -248 -92 -506 -91 -213 0 -324 16
-442 63 -267 108 -530 358 -645 610 -151 334 -147 721 11 1040 186 375 564
636 964 666 118 8 187 5 315 -15z m-2545 -1124 c187 -54 384 -120 390 -130 6
-10 17 -6 -292 -110 -184 -62 -265 -85 -270 -77 -10 17 -16 226 -8 302 6 55 9
65 23 61 10 -3 80 -24 157 -46z m-1585 -130 l0 -140 -300 0 -300 0 0 140 0
140 300 0 300 0 0 -140z m1080 -995 l0 -215 -310 0 -310 0 0 215 0 215 310 0
310 0 0 -215z m-1595 152 c198 -65 386 -252 454 -453 25 -75 37 -261 22 -359
-7 -50 -25 -100 -62 -175 -45 -91 -65 -117 -143 -196 -74 -74 -107 -99 -176
-132 -123 -60 -193 -77 -330 -76 -136 0 -208 17 -328 76 -149 73 -280 218
-359 398 -27 63 -28 71 -27 225 0 146 2 167 27 240 60 181 175 313 357 409
124 65 177 76 345 72 117 -3 153 -8 220 -29z m3078 -4 c114 -40 185 -83 271
-164 83 -78 136 -162 173 -274 25 -73 27 -94 27 -245 1 -147 -1 -172 -22 -232
-43 -125 -193 -298 -327 -380 -115 -70 -170 -83 -350 -83 -141 0 -168 3 -230
23 -276 92 -459 310 -496 590 -39 290 115 588 371 722 125 64 200 81 360 77
120 -3 144 -7 223 -34z"/>
<path d="M1480 4644 l0 -186 136 -142 c76 -77 141 -143 147 -145 5 -2 70 57
143 130 l134 134 0 197 0 198 -280 0 -280 0 0 -186z"/>
<path d="M1044 4363 c-29 -4 -32 -8 -38 -50 -3 -25 -6 -149 -6 -274 l0 -229
208 0 207 0 132 133 132 132 -144 148 -144 147 -158 -2 c-87 0 -172 -3 -189
-5z"/>
<path d="M2015 4230 l-139 -140 39 -42 c22 -24 82 -87 135 -140 l95 -98 197 0
198 0 0 280 0 280 -193 0 -192 0 -140 -140z"/>
<path d="M1617 3852 l-137 -137 0 -193 0 -192 280 0 280 0 0 196 0 196 -131
126 c-72 70 -137 130 -143 134 -8 4 -65 -46 -149 -130z"/>
<path d="M7933 5051 c-226 -78 -285 -373 -107 -530 74 -65 127 -86 214 -86 93
1 153 29 223 104 63 67 88 125 89 204 2 98 -25 161 -96 233 -93 92 -201 118
-323 75z"/>
<path d="M7324 4401 c-62 -16 -124 -53 -164 -98 -144 -163 -85 -412 120 -507
66 -31 143 -34 216 -9 71 24 175 129 199 202 49 150 -21 318 -161 387 -58 28
-154 40 -210 25z"/>
<path d="M8583 4392 c-112 -40 -177 -108 -210 -221 -39 -137 37 -298 178 -372
62 -33 195 -34 254 -2 71 38 123 91 157 160 27 56 32 77 32 137 0 86 -24 144
-85 211 -86 93 -214 127 -326 87z"/>
<path d="M7967 3740 c-96 -24 -173 -88 -216 -179 -55 -119 -27 -264 70 -359
68 -67 119 -87 219 -87 70 0 94 4 134 24 156 77 221 253 152 408 -33 72 -102
144 -167 172 -55 24 -140 34 -192 21z"/>
</g>
</svg>
