<?xml version="1.0" standalone="no"?>
<!DOCTYPE svg PUBLIC "-//W3C//DTD SVG 20010904//EN"
 "http://www.w3.org/TR/2001/REC-SVG-20010904/DTD/svg10.dtd">
<svg version="1.0" xmlns="http://www.w3.org/2000/svg"
 width="580.000000pt" height="288.000000pt" viewBox="0 0 580.000000 288.000000"
 preserveAspectRatio="xMidYMid meet">

<g transform="translate(0.000000,288.000000) scale(0.100000,-0.100000)"
fill="#000000" stroke="none">
<path d="M1485 2568 c-247 -27 -367 -44 -383 -54 -22 -15 -50 -60 -41 -68 2
-2 36 3 74 11 52 11 168 16 459 20 l388 5 -5 42 c-7 54 -44 86 -95 85 -20 -1
-199 -19 -397 -41z"/>
<path d="M3837 2599 c-21 -12 -47 -67 -47 -98 0 -18 13 -19 383 -24 295 -4
399 -9 456 -21 41 -9 77 -14 79 -11 9 9 -17 54 -40 69 -16 10 -141 27 -401 55
-422 46 -405 44 -430 30z"/>
<path d="M1270 2435 c-8 -2 -49 -9 -90 -15 -335 -55 -649 -296 -795 -613 -246
-533 -33 -1162 486 -1432 384 -199 854 -154 1187 115 l62 50 760 0 760 0 62
-50 c182 -146 392 -225 633 -236 582 -28 1075 401 1137 988 52 489 -258 974
-723 1134 -183 62 -47 58 -1834 60 -896 1 -1637 1 -1645 -1z m3215 -474 c96
-44 154 -124 162 -225 6 -72 -7 -123 -44 -166 -30 -37 -564 -447 -613 -472
-40 -21 -115 -23 -172 -6 -22 6 -62 31 -88 55 -118 106 -126 269 -18 369 53
50 550 427 588 446 45 24 133 23 185 -1z m-2976 -177 c19 -24 21 -40 21 -150
l0 -124 129 0 c104 0 133 -3 145 -16 24 -23 23 -275 -1 -295 -11 -10 -54 -15
-144 -17 l-127 -4 -4 -127 c-2 -90 -7 -133 -17 -144 -11 -14 -35 -17 -144 -17
-173 0 -167 -6 -167 162 l0 128 -124 0 c-110 0 -126 2 -150 21 -26 20 -26 23
-26 143 0 171 -5 166 166 166 l134 0 0 132 c0 174 -6 168 161 168 126 0 128 0
148 -26z m3452 -209 c100 -34 168 -123 177 -230 6 -81 -14 -137 -66 -187 -50
-48 -551 -432 -590 -452 -43 -22 -146 -21 -198 3 -163 74 -210 298 -87 412 63
59 560 433 598 450 49 23 107 24 166 4z m-2401 -235 c25 -13 38 -59 28 -96 -6
-24 -36 -53 -130 -125 -67 -52 -131 -99 -142 -106 -55 -32 -126 3 -126 62 0
18 3 41 6 50 4 9 67 63 142 121 111 86 140 104 169 104 19 0 43 -4 53 -10z
m587 -12 c16 -15 23 -33 23 -59 0 -45 -15 -60 -178 -184 -124 -94 -151 -102
-198 -61 -22 18 -28 32 -27 60 1 20 7 44 15 53 7 9 71 60 142 115 107 82 134
98 164 98 23 0 44 -8 59 -22z"/>
<path d="M4329 1905 c-76 -24 -139 -110 -139 -191 0 -64 51 -144 112 -175 56
-29 150 -24 200 10 56 39 82 85 86 155 3 50 -1 69 -20 106 -45 84 -147 124
-239 95z"/>
<path d="M3837 1530 c-46 -14 -98 -60 -118 -104 -64 -142 39 -295 193 -284
165 12 244 201 135 325 -55 62 -134 86 -210 63z"/>
<path d="M1242 1768 c-8 -8 -12 -55 -12 -145 l0 -133 -121 0 c-115 0 -154 -8
-171 -34 -4 -6 -8 -55 -8 -108 0 -137 1 -138 170 -138 l130 0 0 -133 c0 -90 4
-137 12 -145 8 -8 50 -12 125 -12 101 0 113 2 123 19 5 11 10 76 10 145 l0
126 123 0 c168 0 167 -1 167 139 0 89 -3 111 -17 122 -11 10 -54 15 -145 17
l-128 4 0 127 c0 164 2 161 -141 161 -68 0 -109 -4 -117 -12z"/>
<path d="M4803 1506 c-187 -88 -124 -376 82 -376 172 0 264 183 161 323 -26
35 -110 77 -155 77 -20 0 -59 -11 -88 -24z"/>
<path d="M4321 1129 c-94 -38 -147 -142 -121 -240 15 -56 80 -122 137 -139 88
-27 191 18 234 102 32 62 24 154 -17 205 -44 55 -99 83 -159 82 -27 0 -61 -5
-74 -10z"/>
<path d="M2480 1323 c-8 -3 -67 -46 -131 -95 -136 -104 -163 -144 -121 -181
38 -35 73 -22 198 74 120 92 143 116 144 156 0 37 -49 62 -90 46z"/>
<path d="M3049 1316 c-44 -22 -238 -176 -249 -196 -25 -47 0 -90 53 -90 23 0
58 21 144 86 155 118 177 150 133 194 -23 23 -45 25 -81 6z"/>
</g>
</svg>
