<?xml version="1.0" standalone="no"?>
<!DOCTYPE svg PUBLIC "-//W3C//DTD SVG 20010904//EN"
 "http://www.w3.org/TR/2001/REC-SVG-20010904/DTD/svg10.dtd">
<svg version="1.0" xmlns="http://www.w3.org/2000/svg"
 width="1080.000000pt" height="758.000000pt" viewBox="0 0 1080.000000 758.000000"
 preserveAspectRatio="xMidYMid meet">

<g transform="translate(0.000000,758.000000) scale(0.100000,-0.100000)"
fill="#000000" stroke="none">
<path d="M3210 7439 c-455 -49 -1236 -315 -1491 -508 -115 -87 -161 -154 -204
-293 -31 -104 -77 -167 -165 -229 -93 -66 -168 -186 -294 -472 -184 -414 -489
-1286 -754 -2152 -154 -505 -203 -683 -264 -965 l-33 -155 0 -765 0 -765 39
-110 c75 -215 170 -377 299 -512 92 -95 153 -144 265 -212 85 -51 263 -119
369 -141 71 -14 48 -25 238 116 239 178 491 415 671 632 54 64 177 196 274
292 423 421 861 730 1143 805 l92 25 1968 0 c2257 0 2026 10 2252 -99 349
-169 797 -542 1213 -1011 281 -317 510 -525 815 -740 l47 -34 78 18 c99 23
236 76 332 127 330 178 554 514 645 964 40 203 50 307 49 565 0 390 -43 737
-146 1180 -44 191 -78 308 -251 865 -427 1371 -758 2245 -937 2470 -17 21 -47
50 -68 63 -101 67 -146 131 -186 264 -49 163 -152 264 -391 383 -467 232
-1214 431 -1491 396 -81 -10 -95 -16 -184 -81 -80 -59 -199 -119 -304 -154
l-78 -26 -1393 0 -1393 0 -78 26 c-105 34 -224 95 -305 155 -37 27 -82 55
-100 63 -46 19 -176 26 -279 15z m2272 -440 c203 -42 385 -224 427 -427 39
-190 -15 -370 -154 -509 -121 -122 -249 -170 -425 -160 -223 11 -406 144 -487
354 -35 92 -44 251 -18 339 57 198 216 353 410 400 64 16 179 17 247 3z m2756
-574 c86 -20 156 -58 220 -118 97 -92 144 -203 143 -342 0 -179 -104 -340
-269 -418 -64 -31 -72 -32 -192 -32 -123 0 -126 0 -200 36 -239 117 -334 390
-218 627 58 118 187 219 318 248 75 17 123 16 198 -1z m-5378 -270 c160 -51
282 -128 396 -247 104 -109 173 -230 221 -385 24 -79 26 -105 27 -248 1 -139
-2 -170 -22 -240 -77 -266 -272 -492 -520 -602 -174 -77 -407 -96 -595 -48
-325 83 -579 337 -664 664 -32 121 -36 317 -10 423 59 239 194 434 391 567 90
61 164 94 286 128 77 21 101 23 245 19 140 -3 170 -7 245 -31z m4685 -450 c80
-21 156 -68 219 -136 172 -185 166 -460 -13 -640 -63 -63 -131 -101 -218 -124
-234 -61 -489 88 -555 323 -96 349 216 667 567 577z m1560 -29 c103 -51 175
-123 223 -223 36 -77 37 -80 37 -198 0 -114 -2 -123 -32 -188 -60 -126 -181
-226 -318 -262 -205 -53 -430 53 -525 248 -109 225 -20 496 199 611 92 48 128
56 243 52 90 -3 104 -6 173 -40z m-4377 -152 c100 -50 162 -152 162 -269 0
-91 -29 -154 -99 -218 -83 -73 -180 -94 -291 -61 -71 21 -159 107 -183 178
-44 128 2 273 107 345 59 40 91 49 177 50 62 1 84 -4 127 -25z m1557 1 c130
-64 196 -229 148 -371 -24 -70 -110 -154 -182 -177 -110 -35 -208 -15 -291 60
-77 69 -95 110 -95 218 0 70 4 99 20 130 28 57 104 129 156 148 61 23 190 18
244 -8z m2050 -599 c93 -46 172 -121 213 -202 41 -81 53 -133 54 -221 0 -145
-65 -277 -179 -365 -81 -61 -158 -90 -259 -96 -239 -14 -447 155 -485 396 -31
192 72 392 249 481 86 43 122 51 234 47 90 -3 104 -6 173 -40z m-1340 -437
c170 -44 303 -119 424 -238 329 -324 366 -847 86 -1211 -169 -220 -411 -345
-691 -357 -309 -14 -587 118 -776 367 -115 151 -168 307 -175 517 -5 123 -3
156 16 237 41 178 151 362 287 481 131 116 316 201 484 225 94 13 253 4 345
-21z m-2759 -233 c18 -13 19 -30 22 -240 l3 -226 219 0 c185 0 221 -2 234 -16
14 -13 16 -52 16 -269 0 -251 0 -254 -22 -269 -19 -13 -59 -16 -235 -16 l-213
0 0 -213 c0 -176 -3 -216 -16 -235 -15 -22 -18 -22 -273 -22 -186 0 -260 3
-269 12 -9 9 -12 75 -12 234 l0 223 -226 3 c-210 3 -227 4 -240 22 -11 16 -14
69 -14 267 0 245 0 248 22 263 19 13 59 16 240 16 l218 0 0 222 c0 192 2 224
17 240 15 16 36 18 263 18 197 0 250 -3 266 -14z"/>
<path d="M5290 6890 c-25 -4 -58 -14 -75 -20 l-30 -13 38 -8 c21 -5 60 -18 87
-30 l49 -21 65 26 c35 14 77 26 92 26 17 0 24 4 19 9 -30 27 -170 45 -245 31z"/>
<path d="M5033 6746 c-117 -133 -143 -310 -71 -478 24 -57 38 -62 38 -13 0 78
69 213 178 349 53 66 55 70 41 94 -12 21 -120 92 -141 92 -3 0 -24 -20 -45
-44z"/>
<path d="M5575 6756 c-33 -18 -67 -44 -75 -58 -13 -25 -12 -28 32 -80 106
-124 159 -226 195 -378 l9 -35 28 59 c59 124 57 264 -4 387 -32 63 -94 139
-114 139 -6 0 -38 -15 -71 -34z"/>
<path d="M5243 6453 c-101 -100 -159 -177 -189 -252 -16 -41 -16 -42 7 -67 38
-40 130 -92 194 -109 142 -36 289 -1 400 96 l34 30 -24 54 c-13 30 -38 76 -56
102 -45 67 -225 243 -248 243 -11 0 -63 -43 -118 -97z"/>
<path d="M8033 6306 c-89 -29 -176 -107 -216 -194 -31 -67 -31 -217 0 -284 30
-66 105 -143 170 -174 92 -45 222 -44 317 4 55 27 123 101 152 165 25 54 29
74 29 152 0 81 -3 96 -32 150 -37 71 -105 138 -171 168 -59 26 -188 33 -249
13z"/>
<path d="M2440 6064 c-302 -55 -552 -293 -630 -598 -37 -147 -22 -345 37 -494
60 -149 189 -299 330 -384 463 -280 1061 -32 1199 497 26 99 24 282 -5 390
-108 411 -511 666 -931 589z m275 -179 c226 -47 422 -233 480 -455 23 -85 23
-226 1 -310 -56 -208 -225 -382 -434 -444 -337 -100 -703 122 -777 470 -72
339 143 663 490 739 80 18 155 18 240 0z"/>
<path d="M2461 5764 c-107 -29 -226 -114 -291 -209 -48 -70 -80 -180 -80 -278
0 -144 48 -260 150 -363 141 -142 363 -184 554 -104 65 27 93 47 151 104 165
163 201 384 99 595 -56 114 -205 230 -334 260 -63 15 -185 12 -249 -5z"/>
<path d="M7353 5600 c-96 -20 -194 -95 -239 -183 -90 -174 -20 -389 155 -474
50 -25 67 -28 156 -28 84 0 107 4 147 23 108 53 176 145 199 265 35 192 -116
384 -316 401 -33 3 -79 1 -102 -4z"/>
<path d="M8833 5600 c-96 -20 -183 -88 -234 -182 -32 -60 -34 -68 -34 -163 0
-90 3 -105 28 -153 63 -119 166 -184 302 -190 99 -5 171 19 240 80 140 123
164 308 61 463 -74 112 -228 173 -363 145z"/>
<path d="M4525 5421 c-136 -63 -150 -234 -27 -318 76 -51 173 -35 239 40 75
86 45 225 -59 276 -54 26 -100 26 -153 2z"/>
<path d="M6085 5426 c-67 -30 -115 -100 -115 -168 1 -106 113 -203 213 -184
71 13 140 82 153 153 25 133 -127 254 -251 199z"/>
<path d="M8052 4845 c-104 -29 -172 -83 -223 -177 -32 -60 -34 -68 -34 -163 0
-91 3 -105 28 -154 94 -178 297 -246 476 -159 142 69 223 254 178 409 -53 182
-247 294 -425 244z"/>
<path d="M6607 4385 c-246 -49 -470 -235 -574 -475 -65 -153 -80 -356 -37
-515 133 -495 684 -744 1139 -515 201 101 354 286 417 506 32 112 32 304 0
418 -57 198 -173 357 -339 466 -174 115 -396 156 -606 115z m353 -194 c181
-57 338 -208 400 -383 85 -241 21 -496 -168 -669 -247 -226 -616 -217 -852 20
-128 129 -183 261 -184 441 -1 150 34 252 129 377 80 108 222 197 360 229 81
19 231 12 315 -15z"/>
<path d="M6634 4086 c-124 -40 -254 -148 -309 -256 -116 -229 -43 -514 167
-652 96 -64 159 -82 283 -82 95 0 119 4 178 27 204 80 327 257 327 474 0 200
-104 364 -289 456 -83 41 -86 42 -200 44 -75 2 -130 -2 -157 -11z"/>
<path d="M3807 4153 c-4 -3 -7 -103 -7 -222 0 -119 -5 -223 -10 -231 -8 -12
-49 -16 -237 -20 l-228 -5 -3 -167 -2 -168 218 0 c181 0 221 -3 240 -16 22
-15 22 -19 22 -240 l0 -224 170 0 170 0 0 220 c0 207 1 221 20 240 19 19 33
20 240 20 l220 0 0 170 0 170 -224 0 c-221 0 -225 0 -240 22 -13 19 -16 59
-16 240 l0 218 -163 0 c-90 0 -167 -3 -170 -7z"/>
</g>
</svg>
